<svg xmlns="http://www.w3.org/2000/svg" width="26" height="25.88" viewBox="0 0 26 25.88">
    <g>
        <path fill="#71a6d8" d="M10.227 25.677a.568.568 0 0 1 .068-.8c1.483-1.25 2.824-3.527 4-6.832.813-2.284.986-4 .624-5.093a1.685 1.685 0 0 0-1.726-1.258c-1.082 0-1.611.592-2.2 2.521l-.1.333a20.717 20.717 0 0 1-.753 2.134q-.1.247-.211.479a8.221 8.221 0 0 1-2.6 3.133 15.745 15.745 0 0 1-3.258 1.693.569.569 0 0 1-.438-1.05l.127-.053a14.43 14.43 0 0 0 2.881-1.5 7.119 7.119 0 0 0 2.261-2.705q.1-.212.193-.439l.029-.07a19.384 19.384 0 0 0 .649-1.87l.13-.422a6.386 6.386 0 0 1 1.178-2.433 2.664 2.664 0 0 1 2.111-.892A2.815 2.815 0 0 1 16 12.593c.456 1.372.259 3.332-.631 5.833-1.237 3.478-2.675 5.918-4.338 7.32a.568.568 0 0 1-.8-.068zm4.736-.029a.569.569 0 0 1-.094-.8c1.419-1.8 2.332-4.68 2.713-8.646a.569.569 0 1 1 1.132.109c-.4 4.163-1.376 7.244-2.952 9.241a.568.568 0 0 1-.8.094zm4.237-1.423a.569.569 0 0 1-.327-.734 22.791 22.791 0 0 0 1.615-8.99.569.569 0 1 1 1.136-.039A23.921 23.921 0 0 1 19.93 23.9a.568.568 0 0 1-.734.327zm-13.116-.294a.569.569 0 0 1 .28-.754c3.38-1.552 5.468-4.651 6.268-9.364a.569.569 0 1 1 1.121.187c-.86 5.061-3.167 8.486-6.915 10.207a.568.568 0 0 1-.754-.279zm17.256-3.369a.569.569 0 0 1-.487-.64c1.059-7.849-.648-12.8-5.061-14.995C13.341 2.715 9.54 3.323 6.245 6.764a.569.569 0 0 1-.821-.786c3.644-3.806 7.983-4.5 12.876-2.068 4.926 2.449 6.8 7.884 5.682 16.165a.568.568 0 0 1-.64.487zM1.414 18.73a.569.569 0 0 1 .5-.631c2.161-.253 3.825-1.674 5.017-4.339l.036-.081c1.93-4.39 3.4-5.742 6.227-5.742A5.28 5.28 0 0 1 16.929 9.4a6.489 6.489 0 0 1 1.787 4.48.569.569 0 1 1-1.136.053c-.146-3.127-1.925-4.86-4.387-4.86-2.286 0-3.418 1.041-5.186 5.062-1.346 3.065-3.342 4.787-5.962 5.094a.576.576 0 0 1-.067 0 .569.569 0 0 1-.564-.499zM.7 16.119a.569.569 0 1 1 .042-1.136 3.842 3.842 0 0 0 3.592-2.1.569.569 0 0 1 .97.593 4.978 4.978 0 0 1-4.391 2.65L.7 16.119zm19.5-3.576a7.286 7.286 0 0 0-3.539-5.221.569.569 0 0 1 .545-1A8.4 8.4 0 0 1 21.3 12.3a.569.569 0 1 1-1.112.24zM.02 12.05a.569.569 0 0 1 .38-.694l.018-.005a5.9 5.9 0 0 0 3.368-3.122.569.569 0 0 1 .993.555 6.972 6.972 0 0 1-4.06 3.664.568.568 0 0 1-.7-.4zm5.844-.559a.569.569 0 0 1-.247-.765c2.159-4.21 5.241-5.991 9.142-5.225a.569.569 0 0 1-.219 1.116c-3.367-.662-5.969.842-7.911 4.628a.568.568 0 0 1-.765.246zm19.015-1.155a11.058 11.058 0 0 0-3.8-6.129.569.569 0 1 1 .722-.878 12.194 12.194 0 0 1 4.185 6.741.569.569 0 1 1-1.106.266zM1.146 8.959a.568.568 0 0 1-.283-.753A13.3 13.3 0 0 1 10.255.3a.569.569 0 0 1 .263 1.1A12.165 12.165 0 0 0 1.9 8.676a.568.568 0 0 1-.753.283zm17.964-6.14a11.815 11.815 0 0 0-6.4-1.679.569.569 0 0 1-.024-1.14 12.952 12.952 0 0 1 7 1.838.569.569 0 1 1-.58.978z" transform="translate(-.174 -.174) translate(.174 .174)"/>
    </g>
</svg>
